<?xml version="1.0" encoding="utf-8"?>
<!-- Generator: Adobe Illustrator 25.0.1, SVG Export Plug-In . SVG Version: 6.00 Build 0)  -->
<svg version="1.1" id="Layer_1" xmlns="http://www.w3.org/2000/svg" xmlns:xlink="http://www.w3.org/1999/xlink" x="0px" y="0px"
	 viewBox="0 0 93.8 37" style="enable-background:new 0 0 93.8 37;" xml:space="preserve">
<style type="text/css">
	.st0{fill:#4C6B31;}
	.st1{fill:#AB9732;}
</style>
<g>
	<rect x="59.7" y="17.2" class="st0" width="2.2" height="3.4"/>
	<rect x="56.6" y="17.2" class="st0" width="2.2" height="3.4"/>
	<path class="st0" d="M29.6,24.1h-14c-0.8,0-1.5,0.3-2,1s-0.9,1.5-0.9,2.4v1h-2.5H9.8H7.1v-17h0.7V11H4.2v0.5h0.7V31h0v3.2
		c0,0.8-0.3,1.2-0.9,1.2c-0.7,0-1.4-0.4-1.4-1.2v-1.8H0.3V33c0,0.8,0.3,1.5,1,2.1s1.8,0.9,2.7,0.9c0.9,0,1.7-0.3,2.3-0.9
		c0.6-0.6,0.9-1.3,0.9-2.1v-0.3V31v-0.3h5.7v0.7h0.5v-0.7h4.9H32v0.7h0.5v-3.9c0-0.9-0.3-1.7-0.9-2.4S30.4,24.1,29.6,24.1z M32,27.5
		v1H18.2h-4.9v-1c0-0.3,0.1-0.6,0.3-0.8s0.5-0.3,0.8-0.3h16.5c0.3,0,0.6,0.1,0.8,0.3S32,27.2,32,27.5z"/>
	<path class="st0" d="M59.4,27v1.8h-7.9H51h-6.4V17.7h0.7v-0.5h-2.9v0.4c-0.4-0.4-1-0.5-1.6-0.5c-1.6,0-2.4,0.9-2.4,2.6v9.5
		c0,1.7,0.8,2.6,2.4,2.6c0.7,0,1.2-0.2,1.6-0.5v3.1c0,0.8-0.3,1.1-0.9,1.1c-0.6,0-1-0.4-1-1.1v-1.8h-2.2V33c0,0.8,0.3,1.5,0.9,2
		c0.6,0.6,1.4,0.8,2.2,0.8c0.9,0,1.7-0.3,2.2-0.8s0.8-1.2,0.8-2v-1.9h16.6h0.5v-8.7h-2.3L59.4,27L59.4,27z M42.3,30.6
		c-0.3,0.3-0.7,0.5-1,0.5c-0.5,0-0.8-0.4-0.8-1.1V18.7c0-0.7,0.3-1.1,0.8-1.1c0.4,0,0.7,0.2,1,0.5V30.6z"/>
	<polygon class="st0" points="33.5,12 34.2,12 34.2,30.7 33.5,30.7 33.5,31.2 37.2,31.2 37.2,30.7 36.5,30.7 36.5,12 37.2,12 
		37.2,11.5 33.5,11.5 	"/>
</g>
<g>
	<g>
		<g>
			<path class="st1" d="M77.1,0.6h13c1.8,0,3.2,1.4,3.2,3.2l0,24h-4V8.1c0-1.8-1.4-3.2-3.2-3.2h-9V0.6z"/>
		</g>
	</g>
	<rect x="57.6" y="0.6" class="st1" width="4" height="4.3"/>
	<rect x="70.8" y="0.6" class="st1" width="4" height="4.3"/>
	<rect x="64.3" y="0.6" class="st1" width="4" height="4.3"/>
</g>
<polygon class="st0" points="83.1,24 91.4,30.3 93.4,27.8 85,21.4 "/>
<polygon class="st0" points="76.8,24.3 88.6,33.2 90.5,30.6 78.8,21.7 "/>
<rect x="89.9" y="31.6" transform="matrix(0.7957 0.6057 -0.6057 0.7957 38.8077 -48.5244)" class="st0" width="2.9" height="3.2"/>
<polygon class="st0" points="79.4,31.2 85.8,36 87.7,33.5 81.4,28.7 "/>
</svg>
