<?xml version="1.0" encoding="utf-8"?>
<!-- Generator: Adobe Illustrator 25.2.1, SVG Export Plug-In . SVG Version: 6.00 Build 0)  -->
<svg version="1.1" id="Layer_1" xmlns="http://www.w3.org/2000/svg" xmlns:xlink="http://www.w3.org/1999/xlink" x="0px" y="0px"
	 viewBox="0 0 95.5 69.9" style="enable-background:new 0 0 95.5 69.9;" xml:space="preserve">
<style type="text/css">
	.st0{fill:#AB9732;}
	.st1{fill:#4C6B31;}
</style>
<g>
	<g>
		<g>
			<polygon class="st0" points="46.7,36.5 37.8,31.4 46.7,31.4 			"/>
			<polygon class="st0" points="50.5,24.3 50.5,24.3 50.5,24.3 			"/>
		</g>
		<g>
			<g>
				<g>
					<path class="st0" d="M48.8,0.4H36c-1.7,0-3.2,1.4-3.2,3.2l0,26.7h4V7.8c0-1.7,1.4-3.2,3.2-3.2h8.8V0.4z"/>
				</g>
			</g>
			<g>
				<polygon class="st0" points="62.7,24.3 62.7,24.4 62.7,24.3 				"/>
				<path class="st0" d="M37.8,26.1h5.3h12.5c1.2,0,2.3-0.7,2.8-1.7c0.2-0.4,0.4-0.9,0.4-1.4V5.7h4l0,18.6v0l0,2.8
					c0,1.7-1.4,3.2-3.2,3.2h-1.7h-5.8H37.8V26.1z"/>
			</g>
			
				<rect x="59.1" y="0.4" transform="matrix(-1 -1.224647e-16 1.224647e-16 -1 121.815 4.5664)" class="st1" width="3.7" height="3.7"/>
			
				<rect x="49.8" y="0.4" transform="matrix(-1 -1.224647e-16 1.224647e-16 -1 103.3242 4.5664)" class="st1" width="3.7" height="3.7"/>
			
				<rect x="54.5" y="0.4" transform="matrix(-1 -1.224647e-16 1.224647e-16 -1 112.5696 4.5664)" class="st1" width="3.7" height="3.7"/>
		</g>
	</g>
</g>
<g>
	<path class="st1" d="M19.2,43.2C19.2,43.2,19.2,43.3,19.2,43.2l0.1,19.2c0,0,0,0.1,0.1,0.1h1.3c0,0,0.1,0,0.1,0.1v0.8
		c0,0,0,0.1-0.1,0.1h-1.3c-0.1,0-0.1,0-0.1,0.1v2.5c0,0.7-0.3,1.4-0.9,1.8s-1.3,0.8-2.1,0.8H4.1c-0.8,0-1.6-0.3-2.1-0.9
		c-0.6-0.5-0.9-1.3-0.9-2.1v-15c0,0,0-0.1,0.1-0.1h5.9c0,0,0.1,0,0.1,0.1v16c0,0.3,0.1,0.6,0.3,0.8c0.2,0.2,0.5,0.3,0.8,0.3h3.8
		c0.3,0,0.6-0.1,0.8-0.3c0.2-0.2,0.3-0.5,0.3-0.8V43.3c0,0,0-0.1,0.1-0.1H19.2z"/>
	<path class="st1" d="M31.3,48.3C31.4,48.3,31.4,48.3,31.3,48.3l0.1,0.9c0,0,0,0.1,0.1,0.1h13.3c0.8,0,1.6,0.3,2.1,0.9
		c0.5,0.5,0.9,1.3,0.9,2.1v8.2c0,0.8-0.3,1.6-0.9,2.1c-0.6,0.5-1.3,0.9-2.1,0.9H18.2v-1h7.1c0,0,0.1,0,0.1-0.1V48.4
		c0,0,0-0.1,0.1-0.1H31.3z M31.5,50.3C31.4,50.3,31.4,50.3,31.5,50.3l-0.1,12.2c0,0,0,0.1,0.1,0.1h9.1c0.3,0,0.6-0.1,0.8-0.3
		c0.2-0.2,0.3-0.5,0.3-0.8v-10c0-0.3-0.1-0.6-0.3-0.8c-0.2-0.2-0.5-0.3-0.8-0.3H31.5z"/>
	<path class="st1" d="M56.6,43.2C56.7,43.2,56.7,43.2,56.6,43.2l0.1,20.2c0,0,0,0.1-0.1,0.1h-5.9c0,0-0.1,0-0.1-0.1V43.3
		c0-0.1,0-0.1,0-0.1H56.6z"/>
	<path class="st1" d="M73.9,49.3c0.8,0,1.6,0.3,2.1,0.9c0.5,0.5,0.9,1.3,0.9,2.1v10.2c0,0,0,0.1,0.1,0.1h1.3c0,0,0.1,0,0.1,0.1v0.8
		c0,0,0,0.1-0.1,0.1H77c0,0-0.1,0-0.1,0.1v2.5c0,0.7-0.3,1.4-0.9,1.8c-0.6,0.5-1.3,0.8-2.1,0.8H59.8c0,0-0.1,0-0.1-0.1v-0.8
		c0,0,0-0.1,0.1-0.1h9.7c0.4,0,0.7-0.2,1-0.4c0.2-0.2,0.4-0.6,0.4-1V51.4c0-0.3-0.1-0.6-0.3-0.8c-0.2-0.2-0.5-0.3-0.8-0.3h-2.8
		c-0.3,0-0.6,0.1-0.8,0.3c-0.2,0.2-0.3,0.5-0.3,0.8v10c0,0.3,0.1,0.6,0.3,0.8c0.2,0.2,0.5,0.3,0.8,0.3h2.3c0,0,0.1,0,0.1,0.1v0.8
		c0,0,0,0.1-0.1,0.1h-6.5c-0.8,0-1.6-0.3-2.1-0.9c-0.6-0.5-0.9-1.3-0.9-2.1v-8.2c0-0.8,0.3-1.6,0.9-2.1c0.5-0.5,1.3-0.9,2.1-0.9
		H73.9z"/>
	<path class="st1" d="M95.3,49.3C95.3,49.3,95.4,49.3,95.3,49.3l0.1,11.2c0,0.8-0.3,1.6-0.9,2.1c-0.5,0.6-1.3,0.9-2.1,0.9H76
		c0,0-0.1,0-0.1-0.1v-0.8c0,0,0-0.1,0.1-0.1h12c0.4,0,0.7-0.2,0.9-0.4c0.2-0.2,0.4-0.6,0.4-1V49.4c0-0.1,0-0.1,0.1-0.1H95.3z
		 M87.5,44.2C87.6,44.2,87.6,44.2,87.5,44.2l0.1,2.8c0,0,0,0.1-0.1,0.1h-5.9c0,0-0.1,0-0.1-0.1v-2.7c0,0,0-0.1,0.1-0.1H87.5z
		 M95.3,44.2C95.4,44.2,95.4,44.2,95.3,44.2l0.1,2.8c0,0,0,0.1-0.1,0.1h-5.9c-0.1,0-0.1,0-0.1-0.1v-2.7c0,0,0-0.1,0.1-0.1H95.3z"/>
</g>
</svg>
