<?xml version="1.0" encoding="utf-8"?>
<!-- Generator: Adobe Illustrator 25.4.1, SVG Export Plug-In . SVG Version: 6.00 Build 0)  -->
<svg version="1.1" id="Layer_1" xmlns="http://www.w3.org/2000/svg" xmlns:xlink="http://www.w3.org/1999/xlink" x="0px" y="0px"
	 viewBox="0 0 123.4 90.3" style="enable-background:new 0 0 123.4 90.3;" xml:space="preserve">
<style type="text/css">
	.st0{fill:#4C6B31;}
	.st1{fill:#AB9732;}
</style>
<g>
	<path class="st0" d="M23.3,73.3h6.1v0.4h-6.2l-0.9,5h-7.1h-4.5h-0.1h-0.4c-3.4-0.1-5.9-1-7.7-2.7c-1.8-1.8-2.4-4.5-1.7-8.2L1,67.1
		l0.6-3.4L9,62.4l-0.8,4.7L8,68.4c-0.3,1.6-0.5,2.9-0.5,4c-0.1,1.1-0.1,2.1,0.1,3.1c0.1,1,0.5,1.7,1,2.1c0.5,0.5,1.3,0.7,2.2,0.7
		h4.6l1.1-6.4L20.8,47l7.4-1.3L23.3,73.3z"/>
	<path class="st0" d="M59.2,56c3.2,0,5.5,0.7,6.9,2.2c1.4,1.5,1.9,3.7,1.3,6.6l-1.6,8.9h-7.1H42.9h-3.8h-9.3h-4.7v-0.4h4.8l2.3-13.2
		l7.3-1.3L37,73.3h3.4L43.4,56h4.1h3.6H59.2z M58.8,73.3l1.6-8.5h-0.1l0.6-3.2c0.3-1.4,0.4-2.6,0.2-3.6c-0.2-1-0.9-1.6-1.9-1.6h-8.7
		l-3,17H58.8z"/>
	<path class="st0" d="M74.6,47l7.3-1.3l-4.9,27.9h-7.1L74.6,47z"/>
	<path class="st0" d="M108.4,73.3v0.4h-6.5c-1.5,4.5-5.1,6.8-10.7,6.9v-0.4c1-0.1,1.7-0.5,2.2-1.4c0.5-0.9,1-2.2,1.3-3.9l0.2-1.3
		h-4.4c-3.2,0-5.5-0.7-7-2.2c-1.5-1.5-1.9-3.7-1.4-6.6l1.6-8.8h7.1h4.8c3.1,0.1,5.3,0.8,6.7,2.3c1.4,1.5,1.8,3.7,1.3,6.5l-0.6,3.5
		l-0.6,3.4c-0.1,0.7-0.3,1.2-0.4,1.6H108.4z M90.5,73.3H95l0.8-5l0.6-3.5l0.6-3.2c0.3-1.4,0.4-2.6,0.2-3.6c-0.2-1.1-0.9-1.6-1.9-1.6
		h-4.4l-1.5,8.5L88.8,68c-0.3,1.4-0.4,2.6-0.2,3.6C88.8,72.7,89.4,73.3,90.5,73.3z"/>
	<path class="st0" d="M108.6,73.3l2.4-13.2l7.3-1.3l-2.6,14.9h-7.1h-4.4v-0.4H108.6z M108.5,52.4l3.6-3.6l3.6,3.6L112,56L108.5,52.4
		z M119.2,48.8l3.6,3.6l-3.6,3.6l-3.6-3.6L119.2,48.8z"/>
</g>
<g>
	<g>
		<g>
			<polygon class="st1" points="62.9,42.1 73,36.3 62.9,36.3 			"/>
			<path class="st1" d="M58.6,28.2C58.6,28.2,58.6,28.2,58.6,28.2L58.6,28.2L58.6,28.2z"/>
		</g>
		<g>
			<g>
				<g>
					<path class="st1" d="M60.5,1.1h14.6c2,0,3.6,1.6,3.6,3.6l0,30.4h-4.5V9.5c0-2-1.6-3.6-3.6-3.6H60.5V1.1z"/>
				</g>
			</g>
			<g>
				<polygon class="st1" points="44.7,28.3 44.7,28.3 44.7,28.3 				"/>
				<path class="st1" d="M73,30.3h-6H52.8c-1.4,0-2.6-0.8-3.2-2c-0.2-0.5-0.4-1-0.4-1.6V7.1h-4.5l0,21.2v0l0,3.2
					c0,2,1.6,3.6,3.6,3.6h2h6.6H73V30.3z"/>
			</g>
			<rect x="44.7" y="1.1" class="st0" width="4.2" height="4.8"/>
			<rect x="55.2" y="1.1" class="st0" width="4.2" height="4.8"/>
			<rect x="49.9" y="1.1" class="st0" width="4.2" height="4.8"/>
		</g>
	</g>
</g>
<g>
	<g>
		<path class="st1" d="M24.7,88.9v-7.5H22v-1.8h7.8v1.8H27v7.5H24.7z"/>
		<path class="st1" d="M37,88.1c-0.1,0.1-0.3,0.2-0.4,0.3c-0.1,0.1-0.3,0.2-0.5,0.3c-0.2,0.1-0.4,0.2-0.6,0.2
			c-0.2,0-0.4,0.1-0.8,0.1c-0.6,0-1.1-0.2-1.5-0.6c-0.4-0.4-0.6-0.9-0.6-1.6c0-0.5,0.1-0.9,0.3-1.3c0.2-0.3,0.5-0.6,0.9-0.8
			c0.4-0.2,0.9-0.3,1.4-0.4c0.5-0.1,1.1-0.1,1.8-0.2v0c0-0.4-0.1-0.7-0.4-0.8s-0.7-0.2-1.3-0.2c-0.3,0-0.6,0-0.9,0.1
			c-0.3,0.1-0.7,0.2-1,0.4h-0.2V82c0.2-0.1,0.6-0.1,1-0.2c0.5-0.1,1-0.1,1.5-0.1c1.2,0,2.1,0.2,2.6,0.6c0.5,0.4,0.8,1,0.8,1.8v4.8
			H37V88.1z M37,87.1v-1.5c-0.4,0-0.7,0.1-0.9,0.1c-0.2,0-0.5,0.1-0.7,0.2c-0.2,0.1-0.3,0.2-0.4,0.3s-0.2,0.3-0.2,0.5
			c0,0.3,0.1,0.6,0.3,0.7c0.2,0.1,0.4,0.2,0.8,0.2c0.2,0,0.4,0,0.6-0.1C36.6,87.3,36.8,87.2,37,87.1z"/>
		<path class="st1" d="M53.7,81.9l-2,7h-2.3l-1.2-4.5l-1.2,4.5h-2.3l-2-7h2.3l1.1,4.6l1.3-4.6h1.9l1.2,4.6l1.1-4.6H53.7z"/>
		<path class="st1" d="M61,88.1c-0.1,0.1-0.3,0.2-0.4,0.3c-0.1,0.1-0.3,0.2-0.5,0.3c-0.2,0.1-0.4,0.2-0.6,0.2
			c-0.2,0-0.4,0.1-0.8,0.1c-0.6,0-1.1-0.2-1.5-0.6c-0.4-0.4-0.6-0.9-0.6-1.6c0-0.5,0.1-0.9,0.3-1.3c0.2-0.3,0.5-0.6,0.9-0.8
			c0.4-0.2,0.9-0.3,1.4-0.4c0.5-0.1,1.1-0.1,1.8-0.2v0c0-0.4-0.1-0.7-0.4-0.8s-0.7-0.2-1.3-0.2c-0.3,0-0.6,0-0.9,0.1
			c-0.3,0.1-0.7,0.2-1,0.4h-0.2V82c0.2-0.1,0.6-0.1,1-0.2c0.5-0.1,1-0.1,1.5-0.1c1.2,0,2.1,0.2,2.6,0.6c0.5,0.4,0.8,1,0.8,1.8v4.8
			H61V88.1z M61,87.1v-1.5c-0.4,0-0.7,0.1-0.9,0.1c-0.2,0-0.5,0.1-0.7,0.2c-0.2,0.1-0.3,0.2-0.4,0.3c-0.1,0.1-0.2,0.3-0.2,0.5
			c0,0.3,0.1,0.6,0.3,0.7c0.2,0.1,0.4,0.2,0.8,0.2c0.2,0,0.4,0,0.6-0.1C60.7,87.3,60.9,87.2,61,87.1z"/>
		<path class="st1" d="M69.5,89.1c-0.5,0-1-0.1-1.5-0.2c-0.5-0.1-0.8-0.2-1.1-0.4v-1.8h0.2c0.1,0.1,0.2,0.2,0.4,0.3
			c0.1,0.1,0.3,0.2,0.6,0.3c0.2,0.1,0.4,0.2,0.7,0.2c0.3,0.1,0.5,0.1,0.8,0.1c0.3,0,0.6,0,0.8-0.1c0.2-0.1,0.4-0.2,0.4-0.5
			c0-0.2-0.1-0.3-0.2-0.4c-0.1-0.1-0.3-0.2-0.6-0.2c-0.2,0-0.4-0.1-0.6-0.1c-0.3,0-0.5-0.1-0.7-0.2c-0.5-0.2-1-0.4-1.2-0.8
			c-0.3-0.3-0.4-0.8-0.4-1.3c0-0.3,0.1-0.6,0.2-0.9c0.1-0.3,0.4-0.5,0.6-0.7c0.3-0.2,0.6-0.4,1-0.5c0.4-0.1,0.9-0.2,1.4-0.2
			c0.5,0,0.9,0,1.3,0.1c0.4,0.1,0.8,0.2,1,0.4V84h-0.2c-0.1-0.1-0.2-0.1-0.4-0.2c-0.2-0.1-0.3-0.2-0.5-0.3c-0.2-0.1-0.4-0.2-0.6-0.2
			s-0.5-0.1-0.7-0.1c-0.3,0-0.6,0.1-0.8,0.2c-0.2,0.1-0.3,0.3-0.3,0.4c0,0.2,0.1,0.3,0.2,0.4c0.1,0.1,0.3,0.2,0.7,0.3
			c0.2,0,0.4,0.1,0.6,0.1c0.2,0,0.5,0.1,0.7,0.2c0.5,0.2,0.9,0.4,1.1,0.7c0.3,0.3,0.4,0.7,0.4,1.2c0,0.3-0.1,0.6-0.2,0.9
			c-0.2,0.3-0.4,0.5-0.7,0.7c-0.3,0.2-0.7,0.4-1.1,0.5C70.5,89,70.1,89.1,69.5,89.1z"/>
		<path class="st1" d="M82.9,88.9h-2.2v-0.8c-0.4,0.3-0.7,0.6-1,0.7c-0.3,0.2-0.7,0.2-1.1,0.2c-0.7,0-1.2-0.2-1.6-0.7
			c-0.4-0.4-0.6-1.1-0.6-2v-4.5h2.2v3.5c0,0.4,0,0.7,0,0.9c0,0.2,0.1,0.4,0.1,0.6c0.1,0.1,0.2,0.3,0.3,0.3c0.1,0.1,0.3,0.1,0.6,0.1
			c0.2,0,0.3,0,0.5-0.1c0.2-0.1,0.4-0.2,0.6-0.3v-4.9h2.2V88.9z"/>
		<path class="st1" d="M89.3,88.9h-2.2v-9.7h2.2V88.9z"/>
	</g>
</g>
</svg>
